<svg xmlns="http://www.w3.org/2000/svg" viewBox="0 0 1280 316.9">
  <g fill="#EDE3CC" fill-opacity="0.2">
    <rect x="0" y="0" width="315.6" height="60.9"></rect>
    <rect x="964.4" y="0" width="315.6" height="60.9"></rect>
    <polygon transform="translate(315.6,0)" points="648.8 0 0 0 0 60.9 63.4 60.9 63.4 144.6 166.6 144.6 166.6 241.9 263.3 241.9 263.3 316.9 379.9 316.9 379.9 241.9 476.8 241.9 476.8 144.6 581.6 144.6 581.6 60.9 648.8 60.9 648.8 0"></polygon>
  </g>
  <g fill="#EDE3CC" fill-opacity="0.32">
    <rect x="0" y="0" width="334.7" height="43.9"></rect>
    <rect x="945.3" y="0" width="334.7" height="43.9"></rect>
    <polygon transform="translate(315.6,0)" points="629.7 0 19.1 0 19.1 43.9 82.7 43.9 82.7 125.7 186.7 125.7 186.7 227.8 281.9 227.8 281.9 302.9 366.6 302.9 366.6 227.8 461.2 227.8 461.2 125.7 563.2 125.7 563.2 43.9 629.7 43.9 629.7 0"></polygon>
  </g>
  <g fill="#EDE3CC" fill-opacity="0.45">
    <rect x="0" y="0" width="358.7" height="9.8"></rect>
    <rect x="921.3" y="0" width="358.7" height="9.8"></rect>
    <polygon transform="translate(315.6,0)" points="605.7 0 43.1 0 43.1 9.8 113.7 9.8 113.7 78.4 207.9 78.4 207.9 177.5 300.1 177.5 300.1 269.1 351.4 269.1 351.4 177.5 443.8 177.5 443.8 78.4 537.1 78.4 537.1 9.8 605.7 9.8 605.7 0"></polygon>
  </g>
  <polygon transform="translate(315.6,0)" fill="#EDE3CC" fill-opacity="0.55" points="324.4 .2 252.9 0 252.9 42.3 277.8 7.3 277.8 67.4 311.8 18.8 311.8 84.6 324.4 71.6 337 84.6 337 18.8 371 67.4 371 7.3 395.9 42.3 395.9 0 324.4 .2"></polygon>
</svg>