<svg xmlns="http://www.w3.org/2000/svg" viewBox="0 0 2683.01 1812.16"><g fill="#EDE3CC">
  
  <defs>
    
  </defs>
  <path d="M2406.41,102.52C2289.41,35.52,2157.01-1.08,2021.61.02c-96.1.8-184.8,25.9-266.8,73.1-124.1,71.4-219.6,171.2-310.5,280.4l33.1-66.37c-68.9-21.7-140.4-24.1-209.6-10.1l48.4,85.97-77.8-84.5c-72-78.2-154.4-149.3-247.4-201.5C904.11,28.42,810.21,2.22,710.31.42,484.51-3.78,268.41,86.52,127.01,264.42,52.81,359.92,10.71,473.72,1.41,594.72c-9.1,118.7,25.7,237.3,104.2,330.3C-12.59,657.72,86.21,388.22,321.61,232.92l-18.7-49.5,39.4,37.8c35.9-20.1,71.4-34.7,109.9-46.4l-8.3-55.2c1-2.8,2.8-3.5,5.4-2.3l28.3,51.4c40.5-9.9,78-14.9,117.5-16.6l17-80,13.7,80.4c35.4,1.8,68.8,5.4,104.6,14.6l41.9-86-9.5,94.7c37.6,9.9,70.2,25.3,103.2,42.5l54.8-65.9c4.3-.6,5.6,2.7,4,10l-25.5,74.7c33.5,20.9,61.2,43.5,90.7,66.1l79.7-59.4c3.3-1.3,4.5.5,3.4,5.3l-56,80c40.6,39.2,72.3,82.1,104,125.4,1,3.2-.7,4.4-5.2,3.7l-77.3-52.3c-15.7,18.4-28,37.2-41,59.9-109.4-48.4-227.5-8.3-333.7,43.8,61.8,69.2,143.7,129.3,241.3,127.7-129.1,123.2-209.6,306.1-160.4,482.1,12.3,43.8,29.4,82.7,58.8,117.2,44.6,52.4,118,75.1,181.7,44.5,49.7-23.9,76.5-77.4,77.6-133.2-27.9,50.7-84.5,75.7-139.1,50.7l-33.6,39.1,15.7-48.6c-14.9-14.6-27.5-30.2-35.9-50.3l-54.5,13.6,46.2-34.3c-5.8-27.9-10-54.7-7.6-85l-65-20.5,66.4-6.7c5.7-27.8,12.9-53.4,24.8-79.2l-61.5-40.7,73.7,16c17.6-30.1,38.2-55.5,62.1-81.1,19,80.3,39.3,148.6,107.2,197.7l64.5,46.6,7,165.1c2.6,60.4,28,114.2,71.9,154.5,15.9,14.6,34.1,26.5,55.6,32.2,41.2,10.9,84.8,11,125.6-1.5,33.2-10.1,58-32.8,79-59.6,28.9-36.8,43.4-81.4,45.6-129l7.5-161.7c74.6-48.6,130.3-90.9,154.6-179.9,6.6-24.2,13.6-46.4,16.5-72.8,21.1,21.9,33.1,44.4,46.1,70l70.1-12.3-60.3,38.4c10.4,25.1,15.9,48.8,16.6,75.2l59.5,9.7-57.1,14.3c-1.8,27.8-5.2,53.7-13.4,80l47.3,37-57.1-15.7c-8.5,18.2-20.3,32.6-35.1,46l14.8,45.4-31.3-37.4c-51,23.7-106.7-1-133.9-49.3,1.2,36.4,12.6,69,33,96.4,43.8,59.1,142.2,60,200.7,4.3,19.5-18.5,34.2-37.8,46.4-62.1,86.9-173.6,34-376.5-93-519.8,98,22.9,182.7-14.7,252.4-79.8,15.4-12.3,29.5-24.3,41.6-42.5-105.9-52.2-226.1-92.9-335.6-43.1l-23.2-48.8-51.3,40.1c-3,.8-4.4-1.4-4.1-6.5,26.3-42.7,54.5-82.4,90-120.3l-59.3-86.8c-2.5-3.1-.9-3.2,4.8-.5l80.7,60.8c26-25.2,53.9-46.1,84.3-68.4l-34.3-96.7,66,78.4c32.9-19,65.1-31.7,99.3-44.2l-9.9-92.9,40,85.1c35.7-10.4,70.5-13.6,106.9-15.7l9.5-75.5c9.8,25.7,11.9,49.9,18.2,74.8,41.2,1.2,79.3,5.1,118.8,15.4l32.1-60.2-8.6,67.5c39,9.2,73.7,23.2,108.7,42.7l36.3-36.3-16.1,47.7c170.2,102.7,275.7,279.5,276.9,480.8,14.3-42.7,16-86.3,16-132.4.1-197.2-106-375.7-276.4-473.2l-.2.4h0ZM853.91,588.72c-31.6-15.7-59.3-35-90.7-59.7,25.5-13.2,51.6-16.5,78-23,40.3-5.1,79.4.8,117.3,15.4l78.7,35.6c-55,38.1-123.2,65.1-183.3,31.7h0ZM1941.11,529.82c-59.1,46.5-122.4,93.9-194.7,69.2-28.9-9.9-54.1-21.3-79.2-40.7,97.7-52.5,172-70.2,274-28.5h-.1ZM1631.61,674.92c23.1,57.3,19.4,115.9,2.2,174.4-16.4,55.5-42.6,105.2-90.7,139.3l-67.1,41.7-11.7,210.2c-2.4,43.8-22.9,81.1-57,109.3-49,40.5-125.4,40.3-174.3-2.6-26.4-23.1-50.2-57.1-51.9-92.7l-10.3-209.5c-.7-13.6-3.5-19-17.1-26.1-38.2-19.9-74.4-42.1-99-77.6-57.7-83.4-82.1-213.8-21.3-299.9,45.6-64.6,132.5-77.4,195.9-26.6,15.3-21.8,29.3-44,54.2-54.7,24.6-10.6,56.3-10,80.7.8,24.1,10.6,37.1,32.6,51.8,54.2,39.8-27.2,84.3-39.4,129-25.3,41.2,13,70.7,45.8,86.6,85.1h0Z"></path>
  <path d="M1551.51,1256.52c-2.1-14.7-1.4-26,2.3-41.2l289.7,411.4c-7.9,7.2-13.6,11.5-21.7,15.8l-270.3-385.9v-.1h0Z"></path>
  <path d="M795.01,1626.02l41.1-59,185.4-262.7c12.9-18.3,33-28.7,41.1-50.4,6-15.8,11.1-31.1,25.1-45.3l2.6,42.4-272.9,389.2c-9.2-2.3-14.9-6.5-22.3-14.2h-.1,0Z"></path>
  <polygon points="1524.82 1341.72 1538.61 1309.92 1734.32 1698.82 1711.61 1712.42 1524.82 1341.72"></polygon>
  <polygon points="903.11 1701.52 1099.21 1306.32 1113.71 1338.12 927.31 1712.42 903.11 1701.52"></polygon>
  <path d="M1015.11,1752.92l124.9-371.7,20.6,23-119.7,357.3c-10.1-1.5-16.4-2.8-25.9-8.7l.1.1Z"></path>
  <polygon points="1476.82 1408.92 1497.32 1385.52 1622.32 1752.92 1597.42 1761.72 1476.82 1408.92"></polygon>
  <rect x="1023.45" y="1610.44" width="351.1" height="27.8" transform="translate(-604.1336 2532.5149) rotate(-80.3)"></rect>
  <path d="M1452.42,1798.32l-57.8-339.1c9.3-4.2,16.5-8,25.7-9.5l57.9,343.5-25.8,5.1h0Z"></path>
  <rect x="1304.6" y="1469.96" width="27.4" height="342.2"></rect>
  <path d="M1680.01,1296.12c11.4-4.6,21.9-2.4,34.2-3.6l233,233.8c-4.8,8.5-9.9,13.7-18.2,19.1l-248.9-249.3h-.1Z"></path>
  <path d="M709.41,1547.82c-9.3-4.1-14.6-11.4-18.4-21l193.1-194.2,33.9,3.4-88.8,89.8-119.9,122h.1Z"></path>
  <path d="M1781.71,1271.02c5.6-7.6,14.1-12.2,22.8-16.6l221.8,168.1c-3.8,8.9-8.1,15.3-14.7,21.1l-229.9-172.5v-.1h0Z"></path>
  <rect x="1966.93" y="1103.93" width="28.9" height="257.2" transform="translate(13.7233 2486.8462) rotate(-64.4)"></rect>
  <rect x="2008.59" y="987.26" width="28.4" height="248.4" transform="translate(425.6635 2777.6528) rotate(-75)"></rect>
  <rect x="1917.01" y="961.72" width="247.2" height="26.9"></rect>
  <path d="M625.31,1445.92c-7.3-6.5-13.3-13-14.9-22l179-135.9c8.5,4.1,15.5,9.1,21.3,16.5l-94.2,72.5-91.1,68.9h-.1Z"></path>
  <rect x="472.11" y="961.52" width="215.9" height="26.9"></rect>
  <rect x="527.5" y="1230.11" width="209.5" height="28.5" transform="translate(-477.08 397.28) rotate(-25.7)"></rect>
  <rect x="487.24" y="1104.52" width="208.6" height="27.9" transform="translate(-276.9 198.3) rotate(-15.47)"></rect>
  <g>
    <path d="M1622.61,452.32l4.1,6.5-16.8,14.9c1.5-8.9,8.1-14,12.7-21.4h0Z"></path>
    <path d="M924.81,162.52c0-4.3-1.3-7.4-4-10,4.4-5.3,5.4-12.9,14.3-15.5l-10.3,25.5Z"></path>
    <path d="M1115.92,458.32l5.2-3.7c2.7,3.7,8.3,5.9,9.1,13.1-7.2-.6-9.8-6.3-14.2-9.3l-.1-.1Z"></path>
    <path d="M1073.01,249.22l-3.4-5.3c1.8-1.4,4-6.1,8.3-5.7,2.5.3,1.7,5.3-.1,6.5s-3.4,2.5-4.8,4.5Z"></path>
    <path d="M449.31,117.32l-5.4,2.3c-.4-2.7-5.2-8.7-.8-12.3,4-.8,4.7,7.3,6.2,10.1v-.1h0Z"></path>
    <path d="M1653.21,245.22c-2.1-.6-6.1-3.7-6.3-6,5.5-3.6,8.5,3.5,11.1,5.6l-4.8.5v-.1h0Z"></path>
  </g>
  <path d="M1551.51,1256.52c-2.1-14.7-1.4-26,2.3-41.2l289.7,411.4c-7.9,7.2-13.6,11.5-21.7,15.8l-270.3-385.9v-.1h0Z"></path>
  <path d="M795.01,1626.02l41.1-59,185.4-262.7c12.9-18.3,33-28.7,41.1-50.4,6-15.8,11.1-31.1,25.1-45.3l2.6,42.4-272.9,389.2c-9.2-2.3-14.9-6.5-22.3-14.2h-.1,0Z"></path>
  <polygon points="1524.82 1341.72 1538.61 1309.92 1734.32 1698.82 1711.61 1712.42 1524.82 1341.72"></polygon>
  <polygon points="903.11 1701.52 1099.21 1306.32 1113.71 1338.12 927.31 1712.42 903.11 1701.52"></polygon>
  <path d="M1015.11,1752.92l124.9-371.7,20.6,23-119.7,357.3c-10.1-1.5-16.4-2.8-25.9-8.7l.1.1Z"></path>
  <polygon points="1476.82 1408.92 1497.32 1385.52 1622.32 1752.92 1597.42 1761.72 1476.82 1408.92"></polygon>
  <rect x="1023.45" y="1610.44" width="351.1" height="27.8" transform="translate(-604.1336 2532.5149) rotate(-80.3)"></rect>
  <path d="M1452.42,1798.32l-57.8-339.1c9.3-4.2,16.5-8,25.7-9.5l57.9,343.5-25.8,5.1h0Z"></path>
  <rect x="1304.6" y="1469.96" width="27.4" height="342.2"></rect>
  <path d="M1680.01,1296.12c11.4-4.6,21.9-2.4,34.2-3.6l233,233.8c-4.8,8.5-9.9,13.7-18.2,19.1l-248.9-249.3h-.1Z"></path>
  <path d="M709.41,1547.82c-9.3-4.1-14.6-11.4-18.4-21l193.1-194.2,33.9,3.4-88.8,89.8-119.9,122h.1Z"></path>
  <path d="M1781.71,1271.02c5.6-7.6,14.1-12.2,22.8-16.6l221.8,168.1c-3.8,8.9-8.1,15.3-14.7,21.1l-229.9-172.5v-.1h0Z"></path>
  <rect x="1966.93" y="1103.93" width="28.9" height="257.2" transform="translate(13.7233 2486.8462) rotate(-64.4)"></rect>
  <rect x="2008.59" y="987.26" width="28.4" height="248.4" transform="translate(425.6635 2777.6528) rotate(-75)"></rect>
  <rect x="1917.01" y="961.72" width="247.2" height="26.9"></rect>
  <path d="M625.31,1445.92c-7.3-6.5-13.3-13-14.9-22l179-135.9c8.5,4.1,15.5,9.1,21.3,16.5l-94.2,72.5-91.1,68.9h-.1Z"></path>
  <rect x="472.11" y="961.52" width="215.9" height="26.9"></rect>
  <rect x="527.5" y="1230.11" width="209.5" height="28.5" transform="translate(-477.08 397.28) rotate(-25.7)"></rect>
  <rect x="487.24" y="1104.52" width="208.6" height="27.9" transform="translate(-276.9 198.3) rotate(-15.47)"></rect>
  <g>
    <path class="st0" d="M1622.61,452.32l4.1,6.5-16.8,14.9c1.5-8.9,8.1-14,12.7-21.4h0Z"></path>
    <path class="st0" d="M924.81,162.52c0-4.3-1.3-7.4-4-10,4.4-5.3,5.4-12.9,14.3-15.5l-10.3,25.5Z"></path>
    <path class="st0" d="M1115.92,458.32l5.2-3.7c2.7,3.7,8.3,5.9,9.1,13.1-7.2-.6-9.8-6.3-14.2-9.3l-.1-.1Z"></path>
    <path class="st0" d="M1073.01,249.22l-3.4-5.3c1.8-1.4,4-6.1,8.3-5.7,2.5.3,1.7,5.3-.1,6.5s-3.4,2.5-4.8,4.5Z"></path>
    <path class="st0" d="M449.31,117.32l-5.4,2.3c-.4-2.7-5.2-8.7-.8-12.3,4-.8,4.7,7.3,6.2,10.1v-.1h0Z"></path>
    <path class="st0" d="M1653.21,245.22c-2.1-.6-6.1-3.7-6.3-6,5.5-3.6,8.5,3.5,11.1,5.6l-4.8.5v-.1h0Z"></path>
  </g>
  <path d="M1340.97,1223.22v-56c14.53-18.44,40.95-27.26,59.55-40.89,14-10.3,9.2-42.1-4.5-49.1-23.5-12-51.2,40.4-79.6,33.3-18.7-4.6-56.3-49.2-72-31.8v.1c-7.2,8-12,28.1-7.8,38.4,5.8,14.2,24.1,15,34.3,23.2l37.5,30.2.43.34.17,52.55c-43.62,16.94-94.8,13.56-133.97-10.47v37.75c52.61,21.93,101.4,21.41,150.5,1.63,46.3,19.32,92.38,20.11,145.25.25v-37.23c-39.34,21.94-87.27,25.09-129.84,7.78h0Z"></path>
  <path d="M1092.3,691.02c-21.17-5.33-42.03-.39-63.74,4.68-3.29,13.21,1.57,40.32,5.11,45.38,13.64,37.02,46.31,53.92,82.08,42.73,11.49-3.59,24.5.95,28.52,14.02l20.59,66.93c21.45-61.24-10.47-158.12-72.56-173.74ZM1086.17,763.6c-21.17-2.59-32.08-23.98-31.95-42.23,32.83-4.27,48.64,5.5,67.18,34.34-11.25,4.85-24.08,9.26-35.23,7.89Z"></path>
  <path d="M1617.35,695.7c-21.71-5.07-42.56-10.01-63.74-4.68-62.09,15.62-94.01,112.5-72.56,173.74l20.59-66.93c4.02-13.07,17.03-17.61,28.52-14.02,35.77,11.19,68.44-5.71,82.08-42.73,3.53-5.06,8.4-32.17,5.11-45.38ZM1558.13,763.6c-11.15,1.36-23.98-3.04-35.23-7.89,18.54-28.84,34.35-38.61,67.18-34.34.13,18.25-10.78,39.65-31.95,42.23Z"></path>
</g></svg>