<?xml version="1.0" encoding="UTF-8"?>
<svg id="Layer_1" xmlns="http://www.w3.org/2000/svg" version="1.1" viewBox="0 0 2682.7 1812.1">
  <!-- Generator: Adobe Illustrator 30.6.0, SVG Export Plug-In . SVG Version: 2.1.4 Build 109)  -->
  <defs>
    <style>
      .st0 {
        fill: #fff;
      }
    </style>
  </defs>
  <path d="M2406.4,102.5C2289.4,35.5,2157-1.1,2021.6,0c-96.1.8-184.8,25.9-266.8,73.1-124.1,71.4-219.6,171.2-310.5,280.4l29.9-87.4c-68.9-21.7-140.4-24.1-209.6-10.1l51.6,107-77.8-84.5c-72-78.2-154.4-149.3-247.4-201.5C904.1,28.4,810.2,2.2,710.3.4,484.5-3.8,268.4,86.5,127,264.4,52.8,359.9,10.7,473.7,1.4,594.7c-9.1,118.7,25.7,237.3,104.2,330.3C-12.6,657.7,86.2,388.2,321.6,232.9l-18.7-49.5,39.4,37.8c35.9-20.1,71.4-34.7,109.9-46.4l-8.3-55.2c1-2.8,2.8-3.5,5.4-2.3l28.3,51.4c40.5-9.9,78-14.9,117.5-16.6l17-80,13.7,80.4c35.4,1.8,68.8,5.4,104.6,14.6l41.9-86-9.5,94.7c37.6,9.9,70.2,25.3,103.2,42.5l54.8-65.9c4.3-.6,5.6,2.7,4,10l-25.5,74.7c33.5,20.9,61.2,43.5,90.7,66.1l79.7-59.4c3.3-1.3,4.5.5,3.4,5.3l-56,80c40.6,39.2,72.3,82.1,104,125.4,1,3.2-.7,4.4-5.2,3.7l-77.3-52.3c-15.7,18.4-28,37.2-41,59.9-109.4-48.4-227.5-8.3-333.7,43.8,61.8,69.2,143.7,129.3,241.3,127.7-129.1,123.2-209.6,306.1-160.4,482.1,12.3,43.8,29.4,82.7,58.8,117.2,44.6,52.4,118,75.1,181.7,44.5,49.7-23.9,76.5-77.4,77.6-133.2-27.9,50.7-84.5,75.7-139.1,50.7l-33.6,39.1,15.7-48.6c-14.9-14.6-27.5-30.2-35.9-50.3l-54.5,13.6,46.2-34.3c-5.8-27.9-10-54.7-7.6-85l-65-20.5,66.4-6.7c5.7-27.8,12.9-53.4,24.8-79.2l-61.5-40.7,73.7,16c17.6-30.1,38.2-55.5,62.1-81.1,19,80.3,39.3,148.6,107.2,197.7l64.5,46.6,7,165.1c2.6,60.4,28,114.2,71.9,154.5,15.9,14.6,34.1,26.5,55.6,32.2,41.2,10.9,84.8,11,125.6-1.5,33.2-10.1,58-32.8,79-59.6,28.9-36.8,43.4-81.4,45.6-129l7.5-161.7c74.6-48.6,130.3-90.9,154.6-179.9,6.6-24.2,13.6-46.4,16.5-72.8,21.1,21.9,33.1,44.4,46.1,70l70.1-12.3-60.3,38.4c10.4,25.1,15.9,48.8,16.6,75.2l59.5,9.7-57.1,14.3c-1.8,27.8-5.2,53.7-13.4,80l47.3,37-57.1-15.7c-8.5,18.2-20.3,32.6-35.1,46l14.8,45.4-31.3-37.4c-51,23.7-106.7-1-133.9-49.3,1.2,36.4,12.6,69,33,96.4,43.8,59.1,142.2,60,200.7,4.3,19.5-18.5,34.2-37.8,46.4-62.1,86.9-173.6,34-376.5-93-519.8,98,22.9,182.7-14.7,252.4-79.8,15.4-12.3,29.5-24.3,41.6-42.5-105.9-52.2-226.1-92.9-335.6-43.1l-23.2-48.8-51.3,40.1c-3,.8-4.4-1.4-4.1-6.5,26.3-42.7,54.5-82.4,90-120.3l-59.3-86.8c-2.5-3.1-.9-3.2,4.8-.5l80.7,60.8c26-25.2,53.9-46.1,84.3-68.4l-34.3-96.7,66,78.4c32.9-19,65.1-31.7,99.3-44.2l-9.9-92.9,40,85.1c35.7-10.4,70.5-13.6,106.9-15.7l9.5-75.5c9.8,25.7,11.9,49.9,18.2,74.8,41.2,1.2,79.3,5.1,118.8,15.4l32.1-60.2-8.6,67.5c39,9.2,73.7,23.2,108.7,42.7l36.3-36.3-16.1,47.7c170.2,102.7,275.7,279.5,276.9,480.8,14.3-42.7,16-86.3,16-132.4.1-197.2-106-375.7-276.4-473.2ZM853.9,588.7c-31.6-15.7-59.3-35-90.7-59.7,25.5-13.2,51.6-16.5,78-23,40.3-5.1,79.4.8,117.3,15.4l78.7,35.6c-55,38.1-123.2,65.1-183.3,31.7ZM1941.1,529.8c-59.1,46.5-122.4,93.9-194.7,69.2-28.9-9.9-54.1-21.3-79.2-40.7,97.7-52.5,172-70.2,274-28.5ZM1631.6,674.9c23.1,57.3,19.4,115.9,2.2,174.4-16.4,55.5-42.6,105.2-90.7,139.3l-67.1,41.7-11.7,210.2c-2.4,43.8-22.9,81.1-57,109.3-49,40.5-125.4,40.3-174.3-2.6-26.4-23.1-50.2-57.1-51.9-92.7l-10.3-209.5c-.7-13.6-3.5-19-17.1-26.1-38.2-19.9-74.4-42.1-99-77.6-57.7-83.4-82.1-213.8-21.3-299.9,45.6-64.6,132.5-77.4,195.9-26.6,15.3-21.8,29.3-44,54.2-54.7,24.6-10.6,56.3-10,80.7.8,24.1,10.6,37.1,32.6,51.8,54.2,39.8-27.2,84.3-39.4,129-25.3,41.2,13,70.7,45.8,86.6,85.1Z"/>
  <path d="M1551.5,1256.5c-2.1-14.7-1.4-26,2.3-41.2l289.7,411.4c-7.9,7.2-13.6,11.5-21.7,15.8l-270.3-385.9Z"/>
  <path d="M795,1626l41.1-59,185.4-262.7c12.9-18.3,33-28.7,41.1-50.4,6-15.8,11.1-31.1,25.1-45.3l2.6,42.4-272.9,389.2c-9.2-2.3-14.9-6.5-22.3-14.2Z"/>
  <polygon points="1524.8 1341.7 1538.6 1309.9 1734.3 1698.8 1711.6 1712.4 1524.8 1341.7"/>
  <polygon points="903.1 1701.5 1099.2 1306.3 1113.7 1338.1 927.3 1712.4 903.1 1701.5"/>
  <path d="M1015.1,1752.9l124.9-371.7,20.6,23-119.7,357.3c-10.1-1.5-16.4-2.8-25.9-8.7Z"/>
  <polygon points="1476.8 1408.9 1497.3 1385.5 1622.3 1752.9 1597.4 1761.7 1476.8 1408.9"/>
  <rect x="1186.6" y="1448" width="27.8" height="351.1" transform="translate(289.2 -178.3) rotate(9.7)"/>
  <path d="M1452.4,1798.3l-57.8-339.1c9.3-4.2,16.5-8,25.7-9.5l57.9,343.5-25.8,5.1Z"/>
  <rect x="1147.2" y="1627.3" width="342.2" height="27.4" transform="translate(2958.7353 322.0591) rotate(89.9762)"/>
  <path d="M1680,1296.1c11.4-4.6,21.9-2.4,34.2-3.6l233,233.8c-4.8,8.5-9.9,13.7-18.2,19.1l-248.9-249.3Z"/>
  <path d="M709.4,1547.8c-9.3-4.1-14.6-11.4-18.4-21l193.1-194.2,33.9,3.4-88.8,89.8-119.9,122Z"/>
  <path d="M1781.7,1271c5.6-7.6,14.1-12.2,22.8-16.6l221.8,168.1c-3.8,8.9-8.1,15.3-14.7,21.1l-229.9-172.5Z"/>
  <rect x="1852.8" y="1218" width="257.2" height="28.9" transform="translate(727 -735.1) rotate(25.6)"/>
  <rect x="1898.8" y="1097" width="248.4" height="28.4" transform="translate(356.3 -485.5) rotate(15)"/>
  <rect x="1917" y="961.7" width="247.2" height="26.9"/>
  <path d="M625.3,1445.9c-7.3-6.5-13.3-13-14.9-22l179-135.9c8.5,4.1,15.5,9.1,21.3,16.5l-94.2,72.5-91.1,68.9Z"/>
  <rect x="472.1" y="961.5" width="215.9" height="26.9"/>
  <rect x="618" y="1139.5" width="28.5" height="209.5" transform="translate(1479.2027 134.9701) rotate(64.2978)"/>
  <rect x="577.5" y="1014.2" width="27.9" height="208.6" transform="translate(1511.7341 250.2014) rotate(74.5338)"/>
  <g>
    <g>
      <path d="M1244.4,1078.7c15.7-17.4,53.3,27.2,72,31.8,28.4,7.1,56.1-45.3,79.6-33.3,13.7,7,18.5,38.8,4.5,49.1-20.6,15.1-50.8,24.3-63.8,47.2l-1.6,110.4c37-6.1,65.5-28.2,82.8-60.6,8.7,2.1,14.2,7.2,23.4,12.8-22.4,45.6-67.9,74.5-117.3,75.2-51.7.7-97.1-26.5-121.8-73.9,7.4-6.3,14.2-10,22.5-13.8,18.1,31.2,44.1,55.4,83,59.7l.7-112.7-37.5-30.2c-10.2-8.2-28.5-9-34.3-23.2-4.2-10.3.6-30.4,7.8-38.4Z"/>
      <path d="M1432.2,838.9c-1.5-23.2,2-47.8,11.4-71.3,15.3-38.4,60.3-54.1,95.5-34.9-10.2,6.1-15.9,13.1-15.4,23.4.5,8.5,6.6,17.4,17.7,20.3,8.1,2.1,16.8-2.8,24.9-13.3,7.8,22.4-3.2,43-22.5,54.8-25.7,15.7-56.6,12.8-82.8-2.7-1.3,6.6-1.5,13.9-5.1,17.1-4.7,4.1-9.6,6.2-23.9,6.7Z"/>
      <path d="M1119.1,825.2c-27.7-7.6-45.5-32.7-38.6-57.9,13,10.4,28.7,11.7,37.7,1,8.4-10,5.5-26.2-9-36.3,27-13.7,63.5-7.9,83.3,17.5,20.1,25.8,24.4,59.9,21.8,89.6-10.5,0-16.1-1.7-20.8-4.6-5.3-3.3-6-11.4-6.2-19.6-21.1,12.1-43.7,16.9-68.2,10.2Z"/>
    </g>
    <g>
      <path d="M1622.6,452.3l4.1,6.5-16.8,14.9c1.5-8.9,8.1-14,12.7-21.4Z"/>
      <path d="M924.8,162.5c0-4.3-1.3-7.4-4-10,4.4-5.3,5.4-12.9,14.3-15.5l-10.3,25.5Z"/>
      <path d="M1115.9,458.3l5.2-3.7c2.7,3.7,8.3,5.9,9.1,13.1-7.2-.6-9.8-6.3-14.2-9.3Z"/>
      <path d="M1073,249.2l-3.4-5.3c1.8-1.4,4-6.1,8.3-5.7,2.5.3,1.7,5.3-.1,6.5s-3.4,2.5-4.8,4.5Z"/>
      <path d="M449.3,117.3l-5.4,2.3c-.4-2.7-5.2-8.7-.8-12.3,4-.8,4.7,7.3,6.2,10.1Z"/>
      <path d="M1653.2,245.2c-2.1-.6-6.1-3.7-6.3-6,5.5-3.6,8.5,3.5,11.1,5.6l-4.8.5Z"/>
    </g>
  </g>
  <path d="M1551.5,1256.5c-2.1-14.7-1.4-26,2.3-41.2l289.7,411.4c-7.9,7.2-13.6,11.5-21.7,15.8l-270.3-385.9Z"/>
  <path d="M795,1626l41.1-59,185.4-262.7c12.9-18.3,33-28.7,41.1-50.4,6-15.8,11.1-31.1,25.1-45.3l2.6,42.4-272.9,389.2c-9.2-2.3-14.9-6.5-22.3-14.2Z"/>
  <polygon points="1524.8 1341.7 1538.6 1309.9 1734.3 1698.8 1711.6 1712.4 1524.8 1341.7"/>
  <polygon points="903.1 1701.5 1099.2 1306.3 1113.7 1338.1 927.3 1712.4 903.1 1701.5"/>
  <path d="M1015.1,1752.9l124.9-371.7,20.6,23-119.7,357.3c-10.1-1.5-16.4-2.8-25.9-8.7Z"/>
  <polygon points="1476.8 1408.9 1497.3 1385.5 1622.3 1752.9 1597.4 1761.7 1476.8 1408.9"/>
  <rect x="1186.6" y="1448" width="27.8" height="351.1" transform="translate(289.2 -178.3) rotate(9.7)"/>
  <path d="M1452.4,1798.3l-57.8-339.1c9.3-4.2,16.5-8,25.7-9.5l57.9,343.5-25.8,5.1Z"/>
  <rect x="1147.2" y="1627.3" width="342.2" height="27.4" transform="translate(2958.7353 322.0591) rotate(89.9762)"/>
  <path d="M1680,1296.1c11.4-4.6,21.9-2.4,34.2-3.6l233,233.8c-4.8,8.5-9.9,13.7-18.2,19.1l-248.9-249.3Z"/>
  <path d="M709.4,1547.8c-9.3-4.1-14.6-11.4-18.4-21l193.1-194.2,33.9,3.4-88.8,89.8-119.9,122Z"/>
  <path d="M1781.7,1271c5.6-7.6,14.1-12.2,22.8-16.6l221.8,168.1c-3.8,8.9-8.1,15.3-14.7,21.1l-229.9-172.5Z"/>
  <rect x="1852.8" y="1218" width="257.2" height="28.9" transform="translate(727 -735.1) rotate(25.6)"/>
  <rect x="1898.8" y="1097" width="248.4" height="28.4" transform="translate(356.3 -485.5) rotate(15)"/>
  <rect x="1917" y="961.7" width="247.2" height="26.9"/>
  <path d="M625.3,1445.9c-7.3-6.5-13.3-13-14.9-22l179-135.9c8.5,4.1,15.5,9.1,21.3,16.5l-94.2,72.5-91.1,68.9Z"/>
  <rect x="472.1" y="961.5" width="215.9" height="26.9"/>
  <rect x="618" y="1139.5" width="28.5" height="209.5" transform="translate(1479.2027 134.9701) rotate(64.2978)"/>
  <rect x="577.5" y="1014.2" width="27.9" height="208.6" transform="translate(1511.7341 250.2014) rotate(74.5338)"/>
  <g>
    <path d="M1244.4,1078.7c15.7-17.4,53.3,27.2,72,31.8,28.4,7.1,56.1-45.3,79.6-33.3,13.7,7,18.5,38.8,4.5,49.1-20.6,15.1-50.8,24.3-63.8,47.2l-1.6,110.4c37-6.1,65.5-28.2,82.8-60.6,8.7,2.1,14.2,7.2,23.4,12.8-22.4,45.6-67.9,74.5-117.3,75.2-51.7.7-97.1-26.5-121.8-73.9,7.4-6.3,14.2-10,22.5-13.8,18.1,31.2,44.1,55.4,83,59.7l.7-112.7-37.5-30.2c-10.2-8.2-28.5-9-34.3-23.2-4.2-10.3.6-30.4,7.8-38.4Z"/>
    <path d="M1432.2,838.9c-1.5-23.2,2-47.8,11.4-71.3,15.3-38.4,60.3-54.1,95.5-34.9-10.2,6.1-15.9,13.1-15.4,23.4.5,8.5,6.6,17.4,17.7,20.3,8.1,2.1,16.8-2.8,24.9-13.3,7.8,22.4-3.2,43-22.5,54.8-25.7,15.7-56.6,12.8-82.8-2.7-1.3,6.6-1.5,13.9-5.1,17.1-4.7,4.1-9.6,6.2-23.9,6.7Z"/>
    <path d="M1119.1,825.2c-27.7-7.6-45.5-32.7-38.6-57.9,13,10.4,28.7,11.7,37.7,1,8.4-10,5.5-26.2-9-36.3,27-13.7,63.5-7.9,83.3,17.5,20.1,25.8,24.4,59.9,21.8,89.6-10.5,0-16.1-1.7-20.8-4.6-5.3-3.3-6-11.4-6.2-19.6-21.1,12.1-43.7,16.9-68.2,10.2Z"/>
  </g>
  <g>
    <path class="st0" d="M1622.6,452.3l4.1,6.5-16.8,14.9c1.5-8.9,8.1-14,12.7-21.4Z"/>
    <path class="st0" d="M924.8,162.5c0-4.3-1.3-7.4-4-10,4.4-5.3,5.4-12.9,14.3-15.5l-10.3,25.5Z"/>
    <path class="st0" d="M1115.9,458.3l5.2-3.7c2.7,3.7,8.3,5.9,9.1,13.1-7.2-.6-9.8-6.3-14.2-9.3Z"/>
    <path class="st0" d="M1073,249.2l-3.4-5.3c1.8-1.4,4-6.1,8.3-5.7,2.5.3,1.7,5.3-.1,6.5s-3.4,2.5-4.8,4.5Z"/>
    <path class="st0" d="M449.3,117.3l-5.4,2.3c-.4-2.7-5.2-8.7-.8-12.3,4-.8,4.7,7.3,6.2,10.1Z"/>
    <path class="st0" d="M1653.2,245.2c-2.1-.6-6.1-3.7-6.3-6,5.5-3.6,8.5,3.5,11.1,5.6l-4.8.5Z"/>
  </g>
</svg>