<svg viewBox="0 0 480 130" xmlns="http://www.w3.org/2000/svg" role="img" aria-label="Kady Youth Sheep Camp">
  <defs>
    <style>
      .wordmark { font-family:'Alfa Slab One','Rockwell',Georgia,serif; fill:#EDE3CC; }
      .line { font-size:34px; letter-spacing:0.5px; }
      .tag { font-family:'Space Mono',ui-monospace,monospace; fill:#DEC394; font-size:11px; letter-spacing:3px; }
    </style>
  </defs>
  <!-- Goat icon -->
  <g transform="translate(4,8) scale(0.92)">
    <g fill="#EDE3CC">
      <path d="M50,50 C40,43 29,41 22,48 C15,55 14,64 21,71 C18,63 21,55 29,52 C37,49 45,52 50,56 Z"/>
      <path d="M70,50 C80,43 91,41 98,48 C105,55 106,64 99,71 C102,63 99,55 91,52 C83,49 75,52 70,56 Z"/>
      <path d="M41,58 C34,60 30,67 34,72 C38,70 43,65 44,60 Z"/>
      <path d="M79,58 C86,60 90,67 86,72 C82,70 77,65 76,60 Z"/>
      <path d="M47,48 C43,53 41,59 43,67 C44,76 49,86 60,94 C71,86 76,76 77,67 C79,59 77,53 73,48 C68,45 52,45 47,48 Z"/>
      <path d="M55,90 C56,101 58,108 60,108 C62,108 64,101 65,90 C63,93 57,93 55,90 Z"/>
    </g>
    <g fill="#122634">
      <ellipse cx="52.5" cy="65" rx="2.4" ry="3.2"/>
      <ellipse cx="67.5" cy="65" rx="2.4" ry="3.2"/>
      <path d="M57,79 C57,82 63,82 63,79 C62,81 58,81 57,79 Z"/>
    </g>
  </g>
  <!-- Wordmark -->
  <text class="wordmark line" x="128" y="52">KADY YOUTH</text>
  <text class="wordmark line" x="128" y="90">SHEEP CAMP</text>
  <text class="tag" x="130" y="114">TEEC NOS POS · NAVAJO NATION</text>
</svg>
