<svg viewBox="0 0 100 100" xmlns="http://www.w3.org/2000/svg">
  <rect width="100" height="100" rx="22" fill="#122634"/>
  <g transform="translate(20,16) scale(0.5)">
    <g fill="#EDE3CC">
      <path d="M50,50 C40,43 29,41 22,48 C15,55 14,64 21,71 C18,63 21,55 29,52 C37,49 45,52 50,56 Z"/>
      <path d="M70,50 C80,43 91,41 98,48 C105,55 106,64 99,71 C102,63 99,55 91,52 C83,49 75,52 70,56 Z"/>
      <path d="M41,58 C34,60 30,67 34,72 C38,70 43,65 44,60 Z"/>
      <path d="M79,58 C86,60 90,67 86,72 C82,70 77,65 76,60 Z"/>
      <path d="M47,48 C43,53 41,59 43,67 C44,76 49,86 60,94 C71,86 76,76 77,67 C79,59 77,53 73,48 C68,45 52,45 47,48 Z"/>
      <path d="M55,90 C56,101 58,108 60,108 C62,108 64,101 65,90 C63,93 57,93 55,90 Z"/>
    </g>
    <g fill="#122634">
      <ellipse cx="52.5" cy="65" rx="2.6" ry="3.4"/>
      <ellipse cx="67.5" cy="65" rx="2.6" ry="3.4"/>
    </g>
  </g>
</svg>
